<?xml version="1.0" encoding="iso-8859-1"?>
<!-- Generator: Adobe Illustrator 17.1.0, SVG Export Plug-In . SVG Version: 6.00 Build 0)  -->
<!DOCTYPE svg PUBLIC "-//W3C//DTD SVG 1.1//EN" "http://www.w3.org/Graphics/SVG/1.1/DTD/svg11.dtd">
<svg version="1.1" id="Capa_1" xmlns="http://www.w3.org/2000/svg" xmlns:xlink="http://www.w3.org/1999/xlink" x="0px" y="0px"
	 viewBox="0 0 341.675 341.675" style="enable-background:new 0 0 341.675 341.675;" xml:space="preserve">
<path style="fill: #70A81F" d="M291.063,72.678c-6.314,0-15.26,1.308-23.854,7.055c-0.491-1.029-0.986-2.058-1.503-3.079
	c-0.081-0.16-0.163-0.33-0.249-0.51c-1.38-2.871-4.25-8.845-16.645-8.845H30.309c-4.664,0-11.08,1.71-15.16,9.852
	C5.097,97.21,0,118.769,0,141.229c0,0.051,0.003,0.103,0.003,0.154c0,0.063-0.003,0.126-0.003,0.19
	c0,53.795,30.255,103.181,78.958,128.885c0.76,0.401,7.627,3.918,14.779,3.918h93.825c6.524,0,12.002-2.575,13.524-3.364
	c21.939-11.359,40.172-27.477,53.673-46.637c1.916,0.396,4.025,0.633,6.368,0.633c15.153,0,34.965-9.506,50.473-24.219
	c19.394-18.398,30.074-42.883,30.074-68.943C341.675,99.22,318.971,72.678,291.063,72.678z M194.582,175.354
	c-8.655,13.158-45.9,44.444-53.972,44.444c-7.907,0-45.49-31.402-54.085-44.444c-4.303-6.53-7.359-13.738-6.851-23.206
	c0.896-16.771,14.607-30.616,31.394-30.616c17.261,0,27.314,18.417,29.486,18.417c2.479,0,12.961-18.417,29.478-18.417
	c16.791,0,30.501,13.844,31.398,30.616C201.938,161.617,198.895,168.794,194.582,175.354z M271.935,191.944
	c5.969-15.874,9.171-32.875,9.171-50.371c0-0.063-0.003-0.126-0.003-0.19c0-0.052,0.003-0.103,0.003-0.154
	c0-10.031-1.021-19.879-3.04-29.494c4.73-9.048,10.135-9.057,12.997-9.057c11.173,0,20.612,13.356,20.612,29.167
	C311.675,165.563,287.622,184.912,271.935,191.944z"/>
<g>
</g>
<g>
</g>
<g>
</g>
<g>
</g>
<g>
</g>
<g>
</g>
<g>
</g>
<g>
</g>
<g>
</g>
<g>
</g>
<g>
</g>
<g>
</g>
<g>
</g>
<g>
</g>
<g>
</g>
</svg>
